# xmcd
#
# Track frame offsets: 
#        150
#        18876
#        45751
#        64040
#        82666
#        101645
#        123122
#        142043
#        159540
#        179031
#        198094
#        217214
#        250984
#        283208
#        306370
#
# Disc length: 4422 seconds
#
# Revision: 0
# Processed by: cddbd v1.5.2PL0 Copyright (c) Steve Scherf et al.
# Submitted via: ExactAudioCopy v0.95b4
#
DISCID=d111440f
DTITLE=Angela Johnson - It's Personal
DYEAR=2010
DGENRE=R&B
TTITLE0=Only One
TTITLE1=Hurts Like Hell
TTITLE2=For You
TTITLE3=Be Myself
TTITLE4=Better
TTITLE5=Days
TTITLE6=Indie In Me
TTITLE7=On The Radio
TTITLE8=All In Me (Featuring Darien)
TTITLE9=Get Myself Together
TTITLE10=It's Personal
TTITLE11=Better (Micky More Classic Mix)
TTITLE12=Hurts Like Hell (Makoto Cosmic Boogie Remix)
TTITLE13=Hurts Like Hell (Coma Remix)
TTITLE14=Hurts Like Hell (Rudejack Remix)
EXTD=
EXTT0=
EXTT1=
EXTT2=
EXTT3=
EXTT4=
EXTT5=
EXTT6=
EXTT7=
EXTT8=
EXTT9=
EXTT10=
EXTT11=
EXTT12=
EXTT13=
EXTT14=
PLAYORDER=
